<?xml version="1.0" encoding="UTF-8"?>
<!DOCTYPE svg PUBLIC "-//W3C//DTD SVG 1.1//EN" "http://www.w3.org/Graphics/SVG/1.1/DTD/svg11.dtd">
<svg xmlns="http://www.w3.org/2000/svg" version="1.1" width="1661px" height="652px" style="shape-rendering:geometricPrecision; text-rendering:geometricPrecision; image-rendering:optimizeQuality; fill-rule:evenodd; clip-rule:evenodd" xmlns:xlink="http://www.w3.org/1999/xlink">
<g><path style="opacity:1" fill="#fdfdfd" d="M -0.5,-0.5 C 1.16667,-0.5 2.83333,-0.5 4.5,-0.5C 86.2213,71.5473 180.221,122.047 286.5,151C 382.256,178.299 479.922,193.299 579.5,196C 625.833,196.667 672.167,196.667 718.5,196C 798.803,192.667 879.136,191.334 959.5,192C 1094.73,193.713 1226.06,217.046 1353.5,262C 1432.64,290.212 1503.97,331.212 1567.5,385C 1599.28,413.273 1630.28,442.44 1660.5,472.5C 1660.5,480.833 1660.5,489.167 1660.5,497.5C 1630.31,467.807 1599.64,438.64 1568.5,410C 1503.07,352.256 1429.07,308.256 1346.5,278C 1242.32,240.456 1134.99,217.789 1024.5,210C 983.034,207.391 941.534,205.891 900,205.5C 811.01,207.499 722.01,209.499 633,211.5C 507.276,213.68 384.11,197.18 263.5,162C 165.094,133.311 77.0938,86.1441 -0.5,20.5C -0.5,13.5 -0.5,6.5 -0.5,-0.5 Z"/></g>
<g><path style="opacity:1" fill="#fefefe" d="M 7.5,-0.5 C 17.1667,-0.5 26.8333,-0.5 36.5,-0.5C 112.352,61.7685 198.019,106.268 293.5,133C 394.706,162.534 498.04,178.201 603.5,180C 640.833,180.667 678.167,180.667 715.5,180C 784.816,177.652 854.149,176.152 923.5,175.5C 1068.52,172.504 1209.85,193.671 1347.5,239C 1446.55,272.157 1533.88,324.157 1609.5,395C 1626.37,411.371 1643.37,427.537 1660.5,443.5C 1660.5,451.833 1660.5,460.167 1660.5,468.5C 1630.28,439.443 1599.61,410.943 1568.5,383C 1500.73,326.427 1424.73,283.761 1340.5,255C 1201.01,208.478 1057.68,186.645 910.5,189.5C 843.485,190.313 776.485,191.813 709.5,194C 602.748,198.74 496.748,192.074 391.5,174C 320.689,160.728 252.023,140.395 185.5,113C 120.272,83.9166 60.9388,46.0833 7.5,-0.5 Z"/></g>
<g><path style="opacity:1" fill="#fefdfe" d="M 39.5,-0.5 C 49.5,-0.5 59.5,-0.5 69.5,-0.5C 136.02,50.097 209.687,87.597 290.5,112C 401.585,146.015 515.252,163.349 631.5,164C 657.167,164.667 682.833,164.667 708.5,164C 783.995,161.93 859.495,160.097 935,158.5C 1072.94,156.345 1207.77,175.512 1339.5,216C 1425.26,242.205 1503.26,282.539 1573.5,337C 1603.57,361.894 1632.57,388.061 1660.5,415.5C 1660.5,423.833 1660.5,432.167 1660.5,440.5C 1629.9,410.397 1598.23,381.563 1565.5,354C 1494.04,297.763 1414.37,256.43 1326.5,230C 1194.3,189.135 1058.96,170.301 920.5,173.5C 849.15,174.167 777.816,175.667 706.5,178C 611.27,181.392 516.604,175.725 422.5,161C 347.201,148.26 274.201,127.594 203.5,99C 143.773,73.6607 89.1065,40.494 39.5,-0.5 Z"/></g>
<g><path style="opacity:1" fill="#131212" d="M 69.5,-0.5 C 70.8333,-0.5 72.1667,-0.5 73.5,-0.5C 135.99,47.5853 205.324,83.4186 281.5,107C 407.461,146.256 536.461,164.756 668.5,162.5C 757.666,160.51 846.833,158.51 936,156.5C 1070.36,154.45 1201.86,172.617 1330.5,211C 1416.17,236 1494.5,275 1565.5,328C 1598.7,354.296 1630.37,382.463 1660.5,412.5C 1660.5,413.5 1660.5,414.5 1660.5,415.5C 1632.57,388.061 1603.57,361.894 1573.5,337C 1503.26,282.539 1425.26,242.205 1339.5,216C 1207.77,175.512 1072.94,156.345 935,158.5C 859.495,160.097 783.995,161.93 708.5,164C 682.833,164.667 657.167,164.667 631.5,164C 515.252,163.349 401.585,146.015 290.5,112C 209.687,87.597 136.02,50.097 69.5,-0.5 Z"/></g>
<g><path style="opacity:1" fill="#fefdfe" d="M 73.5,-0.5 C 83.8333,-0.5 94.1667,-0.5 104.5,-0.5C 163.61,41.0524 227.943,72.5524 297.5,94C 402.585,127.096 510.252,144.763 620.5,147C 664.167,147.667 707.833,147.667 751.5,147C 816.154,144.875 880.821,143.375 945.5,142.5C 1095.19,139.431 1240.85,161.931 1382.5,210C 1471.11,240.774 1550.11,287.108 1619.5,349C 1633.04,362.038 1646.7,374.872 1660.5,387.5C 1660.5,395.833 1660.5,404.167 1660.5,412.5C 1630.37,382.463 1598.7,354.296 1565.5,328C 1494.5,275 1416.17,236 1330.5,211C 1201.86,172.617 1070.36,154.45 936,156.5C 846.833,158.51 757.666,160.51 668.5,162.5C 536.461,164.756 407.461,146.256 281.5,107C 205.324,83.4186 135.99,47.5853 73.5,-0.5 Z"/></g>
<g><path style="opacity:1" fill="#fefdfe" d="M 108.5,-0.5 C 119.5,-0.5 130.5,-0.5 141.5,-0.5C 187.686,29.4236 237.019,53.2569 289.5,71C 405.011,109.363 523.678,129.363 645.5,131C 725.861,131.568 806.195,130.235 886.5,127C 983.216,123.242 1079.55,127.575 1175.5,140C 1271.56,153.844 1364.22,179.511 1453.5,217C 1513.7,243.904 1568.7,278.57 1618.5,321C 1632.39,333.73 1646.39,346.23 1660.5,358.5C 1660.5,367.167 1660.5,375.833 1660.5,384.5C 1608.25,331.739 1549.58,287.572 1484.5,252C 1416.31,217.822 1344.97,192.156 1270.5,175C 1163.94,150.244 1055.94,138.744 946.5,140.5C 881.484,141.284 816.484,142.784 751.5,145C 659.482,148.624 567.815,144.624 476.5,133C 385.591,120.025 297.924,95.6916 213.5,60C 188.899,48.3674 164.899,35.7007 141.5,22C 130.048,15.0279 119.048,7.52791 108.5,-0.5 Z"/></g>
<g><path style="opacity:1" fill="#111011" d="M 141.5,-0.5 C 142.833,-0.5 144.167,-0.5 145.5,-0.5C 187.885,27.1905 233.219,49.3572 281.5,66C 399.086,106.316 520.086,127.316 644.5,129C 678.5,129.667 712.5,129.667 746.5,129C 816.651,126.708 886.818,125.208 957,124.5C 1106.47,120.941 1251.97,143.108 1393.5,191C 1477.63,219.874 1553.29,262.874 1620.5,320C 1634,332.004 1647.34,344.171 1660.5,356.5C 1660.5,357.167 1660.5,357.833 1660.5,358.5C 1646.39,346.23 1632.39,333.73 1618.5,321C 1568.7,278.57 1513.7,243.904 1453.5,217C 1364.22,179.511 1271.56,153.844 1175.5,140C 1079.55,127.575 983.216,123.242 886.5,127C 806.195,130.235 725.861,131.568 645.5,131C 523.678,129.363 405.011,109.363 289.5,71C 237.019,53.2569 187.686,29.4236 141.5,-0.5 Z"/></g>
<g><path style="opacity:1" fill="#fefdfe" d="M 145.5,-0.5 C 157.167,-0.5 168.833,-0.5 180.5,-0.5C 239.662,32.9533 302.329,58.12 368.5,75C 479.272,103.93 591.939,117.43 706.5,115.5C 795.503,113.562 884.503,111.562 973.5,109.5C 1109.82,107.57 1243.16,126.403 1373.5,166C 1482.79,198.612 1578.46,253.779 1660.5,331.5C 1660.5,339.833 1660.5,348.167 1660.5,356.5C 1647.34,344.171 1634,332.004 1620.5,320C 1553.29,262.874 1477.63,219.874 1393.5,191C 1251.97,143.108 1106.47,120.941 957,124.5C 886.818,125.208 816.651,126.708 746.5,129C 712.5,129.667 678.5,129.667 644.5,129C 520.086,127.316 399.086,106.316 281.5,66C 233.219,49.3572 187.885,27.1905 145.5,-0.5 Z"/></g>
<g><path style="opacity:1" fill="#131212" d="M 180.5,-0.5 C 181.833,-0.5 183.167,-0.5 184.5,-0.5C 228.752,24.7812 275.419,44.9479 324.5,60C 438.797,95.1858 555.797,112.852 675.5,113C 696.167,113.667 716.833,113.667 737.5,113C 815.828,110.921 894.161,109.088 972.5,107.5C 1099.89,105.58 1224.89,121.746 1347.5,156C 1432.57,179.103 1511.23,215.437 1583.5,265C 1610.5,284.491 1636.16,305.658 1660.5,328.5C 1660.5,329.5 1660.5,330.5 1660.5,331.5C 1578.46,253.779 1482.79,198.612 1373.5,166C 1243.16,126.403 1109.82,107.57 973.5,109.5C 884.503,111.562 795.503,113.562 706.5,115.5C 591.939,117.43 479.272,103.93 368.5,75C 302.329,58.12 239.662,32.9533 180.5,-0.5 Z"/></g>
<g><path style="opacity:1" fill="#fefdfe" d="M 184.5,-0.5 C 197.5,-0.5 210.5,-0.5 223.5,-0.5C 272.939,24.5381 324.606,44.0381 378.5,58C 469.257,82.0701 561.59,95.4034 655.5,98C 700.833,98.6667 746.167,98.6667 791.5,98C 883.471,93.9291 975.471,92.9291 1067.5,95C 1196.93,99.8855 1322.26,124.886 1443.5,170C 1524.33,201.38 1596.66,245.88 1660.5,303.5C 1660.5,311.833 1660.5,320.167 1660.5,328.5C 1636.16,305.658 1610.5,284.491 1583.5,265C 1511.23,215.437 1432.57,179.103 1347.5,156C 1224.89,121.746 1099.89,105.58 972.5,107.5C 894.161,109.088 815.828,110.921 737.5,113C 716.833,113.667 696.167,113.667 675.5,113C 555.797,112.852 438.797,95.1858 324.5,60C 275.419,44.9479 228.752,24.7812 184.5,-0.5 Z"/></g>
<g><path style="opacity:1" fill="#121112" d="M 223.5,-0.5 C 224.833,-0.5 226.167,-0.5 227.5,-0.5C 274.846,22.7889 324.179,41.2889 375.5,55C 469.129,80.382 564.462,94.0487 661.5,96C 701.833,96.6667 742.167,96.6667 782.5,96C 849.319,93.8233 916.153,92.3233 983,91.5C 1121.97,88.9246 1257.8,108.091 1390.5,149C 1491.91,180.178 1581.91,230.678 1660.5,300.5C 1660.5,301.5 1660.5,302.5 1660.5,303.5C 1596.66,245.88 1524.33,201.38 1443.5,170C 1322.26,124.886 1196.93,99.8855 1067.5,95C 975.471,92.9291 883.471,93.9291 791.5,98C 746.167,98.6667 700.833,98.6667 655.5,98C 561.59,95.4034 469.257,82.0701 378.5,58C 324.606,44.0381 272.939,24.5381 223.5,-0.5 Z"/></g>
<g><path style="opacity:1" fill="#fefefe" d="M 227.5,-0.5 C 241.833,-0.5 256.167,-0.5 270.5,-0.5C 313.499,18.1774 357.833,33.3441 403.5,45C 511.623,72.1249 621.457,84.6249 733,82.5C 800.181,81.6975 867.348,80.1975 934.5,78C 1043.95,73.3398 1152.62,80.3398 1260.5,99C 1337.24,113.098 1411.57,135.098 1483.5,165C 1548.53,193.151 1607.53,230.318 1660.5,276.5C 1660.5,284.5 1660.5,292.5 1660.5,300.5C 1581.91,230.678 1491.91,180.178 1390.5,149C 1257.8,108.091 1121.97,88.9246 983,91.5C 916.153,92.3233 849.319,93.8233 782.5,96C 742.167,96.6667 701.833,96.6667 661.5,96C 564.462,94.0487 469.129,80.382 375.5,55C 324.179,41.2889 274.846,22.7889 227.5,-0.5 Z"/></g>
<g><path style="opacity:1" fill="#111011" d="M 270.5,-0.5 C 272.167,-0.5 273.833,-0.5 275.5,-0.5C 322.026,19.3973 370.026,35.2306 419.5,47C 522.426,71.0102 626.76,82.1769 732.5,80.5C 797.185,79.8034 861.851,78.3034 926.5,76C 1024.6,72.0458 1122.27,76.7125 1219.5,90C 1314.91,104.183 1406.91,130.183 1495.5,168C 1555.92,195.18 1610.92,230.347 1660.5,273.5C 1660.5,274.5 1660.5,275.5 1660.5,276.5C 1607.53,230.318 1548.53,193.151 1483.5,165C 1411.57,135.098 1337.24,113.098 1260.5,99C 1152.62,80.3398 1043.95,73.3398 934.5,78C 867.348,80.1975 800.181,81.6975 733,82.5C 621.457,84.6249 511.623,72.1249 403.5,45C 357.833,33.3441 313.499,18.1774 270.5,-0.5 Z"/></g>
<g><path style="opacity:1" fill="#fefefe" d="M 275.5,-0.5 C 291.5,-0.5 307.5,-0.5 323.5,-0.5C 436.146,40.0556 552.479,61.8889 672.5,65C 696.159,65.8425 719.826,66.3425 743.5,66.5C 832.334,64.5614 921.168,62.5614 1010,60.5C 1142.93,58.5649 1273.1,76.3983 1400.5,114C 1496.85,141.667 1583.52,186.834 1660.5,249.5C 1660.5,257.5 1660.5,265.5 1660.5,273.5C 1610.92,230.347 1555.92,195.18 1495.5,168C 1406.91,130.183 1314.91,104.183 1219.5,90C 1122.27,76.7125 1024.6,72.0458 926.5,76C 861.851,78.3034 797.185,79.8034 732.5,80.5C 626.76,82.1769 522.426,71.0102 419.5,47C 370.026,35.2306 322.026,19.3973 275.5,-0.5 Z"/></g>
<g><path style="opacity:1" fill="#141313" d="M 323.5,-0.5 C 325.5,-0.5 327.5,-0.5 329.5,-0.5C 419.391,31.5139 512.058,51.3472 607.5,59C 652.428,62.5653 697.428,64.3986 742.5,64.5C 831.665,62.4463 920.832,60.4463 1010,58.5C 1153.35,56.1466 1293.18,76.98 1429.5,121C 1514.59,148.862 1591.59,190.695 1660.5,246.5C 1660.5,247.5 1660.5,248.5 1660.5,249.5C 1583.52,186.834 1496.85,141.667 1400.5,114C 1273.1,76.3983 1142.93,58.5649 1010,60.5C 921.168,62.5614 832.334,64.5614 743.5,66.5C 719.826,66.3425 696.159,65.8425 672.5,65C 552.479,61.8889 436.146,40.0556 323.5,-0.5 Z"/></g>
<g><path style="opacity:1" fill="#fefefe" d="M 329.5,-0.5 C 348.167,-0.5 366.833,-0.5 385.5,-0.5C 466.855,24.8022 550.188,40.3022 635.5,46C 676.784,48.8538 718.117,50.0205 759.5,49.5C 830.181,48.7496 900.848,47.2496 971.5,45C 1072.48,41.5423 1172.81,47.8757 1272.5,64C 1360.01,78.9584 1444.35,104.292 1525.5,140C 1574.21,162.331 1619.21,190.164 1660.5,223.5C 1660.5,231.167 1660.5,238.833 1660.5,246.5C 1591.59,190.695 1514.59,148.862 1429.5,121C 1293.18,76.98 1153.35,56.1466 1010,58.5C 920.832,60.4463 831.665,62.4463 742.5,64.5C 697.428,64.3986 652.428,62.5653 607.5,59C 512.058,51.3472 419.391,31.5139 329.5,-0.5 Z"/></g>
<g><path style="opacity:1" fill="#111010" d="M 385.5,-0.5 C 387.5,-0.5 389.5,-0.5 391.5,-0.5C 488.904,28.5105 588.57,44.3438 690.5,47C 713.833,47.1667 737.167,47.3333 760.5,47.5C 830.846,46.72 901.18,45.22 971.5,43C 1091.46,38.0635 1210.13,48.0635 1327.5,73C 1399.09,88.4192 1468.09,111.419 1534.5,142C 1579.38,163.921 1621.38,190.088 1660.5,220.5C 1660.5,221.5 1660.5,222.5 1660.5,223.5C 1619.21,190.164 1574.21,162.331 1525.5,140C 1444.35,104.292 1360.01,78.9584 1272.5,64C 1172.81,47.8757 1072.48,41.5423 971.5,45C 900.848,47.2496 830.181,48.7496 759.5,49.5C 718.117,50.0205 676.784,48.8538 635.5,46C 550.188,40.3022 466.855,24.8022 385.5,-0.5 Z"/></g>
<g><path style="opacity:1" fill="#fefefe" d="M 391.5,-0.5 C 413.5,-0.5 435.5,-0.5 457.5,-0.5C 526.63,17.0195 596.963,27.5195 668.5,31C 702.144,32.7636 735.81,33.5969 769.5,33.5C 835.182,32.709 900.849,31.209 966.5,29C 1041.62,26.8302 1116.62,28.8302 1191.5,35C 1298.24,45.186 1401.57,69.5193 1501.5,108C 1558.9,130.683 1611.9,160.517 1660.5,197.5C 1660.5,205.167 1660.5,212.833 1660.5,220.5C 1621.38,190.088 1579.38,163.921 1534.5,142C 1468.09,111.419 1399.09,88.4192 1327.5,73C 1210.13,48.0635 1091.46,38.0635 971.5,43C 901.18,45.22 830.846,46.72 760.5,47.5C 737.167,47.3333 713.833,47.1667 690.5,47C 588.57,44.3438 488.904,28.5105 391.5,-0.5 Z"/></g>
<g><path style="opacity:1" fill="#121111" d="M 457.5,-0.5 C 460.167,-0.5 462.833,-0.5 465.5,-0.5C 533.105,15.7055 601.772,25.5388 671.5,29C 704.471,30.9208 737.471,31.7542 770.5,31.5C 835.846,30.6246 901.179,29.1246 966.5,27C 1088.31,21.3193 1208.97,30.3193 1328.5,54C 1398.7,68.8818 1466.7,90.5484 1532.5,119C 1577.96,139.88 1620.63,165.047 1660.5,194.5C 1660.5,195.5 1660.5,196.5 1660.5,197.5C 1611.9,160.517 1558.9,130.683 1501.5,108C 1401.57,69.5193 1298.24,45.186 1191.5,35C 1116.62,28.8302 1041.62,26.8302 966.5,29C 900.849,31.209 835.182,32.709 769.5,33.5C 735.81,33.5969 702.144,32.7636 668.5,31C 596.963,27.5195 526.63,17.0195 457.5,-0.5 Z"/></g>
<g><path style="opacity:1" fill="#fdfdfd" d="M 465.5,-0.5 C 493.5,-0.5 521.5,-0.5 549.5,-0.5C 595.01,7.68646 641.01,12.8531 687.5,15C 718.323,16.2103 749.156,17.0436 780,17.5C 866.172,15.7186 952.339,13.7186 1038.5,11.5C 1176.8,8.75768 1312.13,27.2577 1444.5,67C 1522.32,90.4123 1594.32,125.246 1660.5,171.5C 1660.5,179.167 1660.5,186.833 1660.5,194.5C 1620.63,165.047 1577.96,139.88 1532.5,119C 1466.7,90.5484 1398.7,68.8818 1328.5,54C 1208.97,30.3193 1088.31,21.3193 966.5,27C 901.179,29.1246 835.846,30.6246 770.5,31.5C 737.471,31.7542 704.471,30.9208 671.5,29C 601.772,25.5388 533.105,15.7055 465.5,-0.5 Z"/></g>
<g><path style="opacity:1" fill="#131112" d="M 549.5,-0.5 C 553.5,-0.5 557.5,-0.5 561.5,-0.5C 624.283,9.50943 687.616,14.6761 751.5,15C 770.167,15.6667 788.833,15.6667 807.5,15C 887.162,12.9563 966.829,11.1229 1046.5,9.5C 1181.02,7.43865 1312.68,25.6053 1441.5,64C 1520.69,87.0763 1593.69,122.243 1660.5,169.5C 1660.5,170.167 1660.5,170.833 1660.5,171.5C 1594.32,125.246 1522.32,90.4123 1444.5,67C 1312.13,27.2577 1176.8,8.75768 1038.5,11.5C 952.339,13.7186 866.172,15.7186 780,17.5C 749.156,17.0436 718.323,16.2103 687.5,15C 641.01,12.8531 595.01,7.68646 549.5,-0.5 Z"/></g>
<g><path style="opacity:1" fill="#fcfcfc" d="M 561.5,-0.5 C 770.833,-0.5 980.167,-0.5 1189.5,-0.5C 1303.18,8.47196 1413.52,32.972 1520.5,73C 1570.04,92.5952 1616.7,117.095 1660.5,146.5C 1660.5,154.167 1660.5,161.833 1660.5,169.5C 1593.69,122.243 1520.69,87.0763 1441.5,64C 1312.68,25.6053 1181.02,7.43865 1046.5,9.5C 966.829,11.1229 887.162,12.9563 807.5,15C 788.833,15.6667 770.167,15.6667 751.5,15C 687.616,14.6761 624.283,9.50943 561.5,-0.5 Z"/></g>
<g><path style="opacity:1" fill="#131212" d="M 1189.5,-0.5 C 1197.17,-0.5 1204.83,-0.5 1212.5,-0.5C 1321.16,9.86738 1426.49,34.7007 1528.5,74C 1575.07,93.1121 1619.07,116.612 1660.5,144.5C 1660.5,145.167 1660.5,145.833 1660.5,146.5C 1616.7,117.095 1570.04,92.5952 1520.5,73C 1413.52,32.972 1303.18,8.47196 1189.5,-0.5 Z"/></g>
<g><path style="opacity:1" fill="#fefefe" d="M 1212.5,-0.5 C 1251.5,-0.5 1290.5,-0.5 1329.5,-0.5C 1391.62,11.4493 1452.62,27.9493 1512.5,49C 1564.76,67.9662 1614.1,92.4662 1660.5,122.5C 1660.5,129.833 1660.5,137.167 1660.5,144.5C 1619.07,116.612 1575.07,93.1121 1528.5,74C 1426.49,34.7007 1321.16,9.86738 1212.5,-0.5 Z"/></g>
<g><path style="opacity:1" fill="#131212" d="M 1329.5,-0.5 C 1333.17,-0.5 1336.83,-0.5 1340.5,-0.5C 1400.92,11.6086 1460.25,28.1086 1518.5,49C 1568.52,67.5093 1615.85,91.0093 1660.5,119.5C 1660.5,120.5 1660.5,121.5 1660.5,122.5C 1614.1,92.4662 1564.76,67.9662 1512.5,49C 1452.62,27.9493 1391.62,11.4493 1329.5,-0.5 Z"/></g>
<g><path style="opacity:1" fill="#fefefe" d="M 1340.5,-0.5 C 1366.17,-0.5 1391.83,-0.5 1417.5,-0.5C 1489.42,17.3105 1558.42,43.1438 1624.5,77C 1636.39,84.1101 1648.39,90.9434 1660.5,97.5C 1660.5,104.833 1660.5,112.167 1660.5,119.5C 1615.85,91.0093 1568.52,67.5093 1518.5,49C 1460.25,28.1086 1400.92,11.6086 1340.5,-0.5 Z"/></g>
<g><path style="opacity:1" fill="#131212" d="M 1417.5,-0.5 C 1420.17,-0.5 1422.83,-0.5 1425.5,-0.5C 1492.64,16.8269 1557.31,40.9936 1619.5,72C 1633.52,79.3395 1647.19,87.1728 1660.5,95.5C 1660.5,96.1667 1660.5,96.8333 1660.5,97.5C 1648.39,90.9434 1636.39,84.1101 1624.5,77C 1558.42,43.1438 1489.42,17.3105 1417.5,-0.5 Z"/></g>
<g><path style="opacity:1" fill="#fefefe" d="M 1425.5,-0.5 C 1446.5,-0.5 1467.5,-0.5 1488.5,-0.5C 1548.43,18.1339 1605.77,42.8006 1660.5,73.5C 1660.5,80.8333 1660.5,88.1667 1660.5,95.5C 1647.19,87.1728 1633.52,79.3395 1619.5,72C 1557.31,40.9936 1492.64,16.8269 1425.5,-0.5 Z"/></g>
<g><path style="opacity:1" fill="#131213" d="M 1488.5,-0.5 C 1490.5,-0.5 1492.5,-0.5 1494.5,-0.5C 1552.42,17.4563 1607.75,41.4563 1660.5,71.5C 1660.5,72.1667 1660.5,72.8333 1660.5,73.5C 1605.77,42.8006 1548.43,18.1339 1488.5,-0.5 Z"/></g>
<g><path style="opacity:1" fill="#fefefe" d="M 1494.5,-0.5 C 1512.83,-0.5 1531.17,-0.5 1549.5,-0.5C 1587.54,14.0178 1624.54,31.0178 1660.5,50.5C 1660.5,57.5 1660.5,64.5 1660.5,71.5C 1607.75,41.4563 1552.42,17.4563 1494.5,-0.5 Z"/></g>
<g><path style="opacity:1" fill="#131212" d="M 1549.5,-0.5 C 1551.17,-0.5 1552.83,-0.5 1554.5,-0.5C 1591.03,13.0955 1626.36,29.4288 1660.5,48.5C 1660.5,49.1667 1660.5,49.8333 1660.5,50.5C 1624.54,31.0178 1587.54,14.0178 1549.5,-0.5 Z"/></g>
<g><path style="opacity:1" fill="#fefefe" d="M 1554.5,-0.5 C 1570.5,-0.5 1586.5,-0.5 1602.5,-0.5C 1622.01,8.25487 1641.35,17.5882 1660.5,27.5C 1660.5,34.5 1660.5,41.5 1660.5,48.5C 1626.36,29.4288 1591.03,13.0955 1554.5,-0.5 Z"/></g>
<g><path style="opacity:1" fill="#141313" d="M 1602.5,-0.5 C 1604.17,-0.5 1605.83,-0.5 1607.5,-0.5C 1625.5,7.33336 1643.17,16 1660.5,25.5C 1660.5,26.1667 1660.5,26.8333 1660.5,27.5C 1641.35,17.5882 1622.01,8.25487 1602.5,-0.5 Z"/></g>
<g><path style="opacity:1" fill="#fefefe" d="M 1607.5,-0.5 C 1621.83,-0.5 1636.17,-0.5 1650.5,-0.5C 1653.52,1.6744 1656.85,3.34107 1660.5,4.5C 1660.5,11.5 1660.5,18.5 1660.5,25.5C 1643.17,16 1625.5,7.33336 1607.5,-0.5 Z"/></g>
<g><path style="opacity:1" fill="#1b1b1b" d="M 1650.5,-0.5 C 1652.17,-0.5 1653.83,-0.5 1655.5,-0.5C 1656.96,0.736849 1658.63,1.73685 1660.5,2.5C 1660.5,3.16667 1660.5,3.83333 1660.5,4.5C 1656.85,3.34107 1653.52,1.6744 1650.5,-0.5 Z"/></g>
<g><path style="opacity:1" fill="#fefffe" d="M 1655.5,-0.5 C 1657.17,-0.5 1658.83,-0.5 1660.5,-0.5C 1660.5,0.5 1660.5,1.5 1660.5,2.5C 1658.63,1.73685 1656.96,0.736849 1655.5,-0.5 Z"/></g>
<g><path style="opacity:1" fill="#fefdfe" d="M -0.5,22.5 C 77.6121,89.2388 166.612,136.739 266.5,165C 386.006,199.652 508.006,215.819 632.5,213.5C 721.507,211.525 810.507,209.525 899.5,207.5C 1025.09,205.99 1148.43,221.823 1269.5,255C 1341.09,274.634 1408.76,303.301 1472.5,341C 1521.25,372.061 1566.25,408.061 1607.5,449C 1624.73,466.733 1642.4,483.899 1660.5,500.5C 1660.5,508.833 1660.5,517.167 1660.5,525.5C 1625.01,491.506 1589.34,457.672 1553.5,424C 1487.77,366.393 1413.44,322.727 1330.5,293C 1184.71,242.064 1034.55,218.564 880,222.5C 811.487,223.302 742.987,224.802 674.5,227C 573.818,230.939 473.818,224.606 374.5,208C 297.968,194.369 223.968,172.369 152.5,142C 97.1664,116.69 46.1664,84.8565 -0.5,46.5C -0.5,38.5 -0.5,30.5 -0.5,22.5 Z"/></g>
<g><path style="opacity:1" fill="#111010" d="M 104.5,-0.5 C 105.833,-0.5 107.167,-0.5 108.5,-0.5C 119.048,7.52791 130.048,15.0279 141.5,22C 164.899,35.7007 188.899,48.3674 213.5,60C 297.924,95.6916 385.591,120.025 476.5,133C 567.815,144.624 659.482,148.624 751.5,145C 816.484,142.784 881.484,141.284 946.5,140.5C 1055.94,138.744 1163.94,150.244 1270.5,175C 1344.97,192.156 1416.31,217.822 1484.5,252C 1549.58,287.572 1608.25,331.739 1660.5,384.5C 1660.5,385.5 1660.5,386.5 1660.5,387.5C 1646.7,374.872 1633.04,362.038 1619.5,349C 1550.11,287.108 1471.11,240.774 1382.5,210C 1240.85,161.931 1095.19,139.431 945.5,142.5C 880.821,143.375 816.154,144.875 751.5,147C 707.833,147.667 664.167,147.667 620.5,147C 510.252,144.763 402.585,127.096 297.5,94C 227.943,72.5524 163.61,41.0524 104.5,-0.5 Z"/></g>
<g><path style="opacity:1" fill="#fefdfd" d="M -0.5,49.5 C 76.6191,111.565 163.286,156.065 259.5,183C 377.812,216.466 498.479,231.966 621.5,229.5C 708.668,227.844 795.835,226.177 883,224.5C 1034.34,220.895 1181.51,243.728 1324.5,293C 1409.34,322.983 1485.34,367.316 1552.5,426C 1588.67,460.006 1624.67,494.172 1660.5,528.5C 1660.5,536.5 1660.5,544.5 1660.5,552.5C 1654.04,547.209 1647.71,541.709 1641.5,536C 1598.29,491.784 1552.96,450.117 1505.5,411C 1443.11,364.299 1374.78,328.299 1300.5,303C 1161.41,257.069 1018.57,235.569 872,238.5C 783.661,240.29 695.327,242.29 607,244.5C 491.922,245.949 378.755,232.115 267.5,203C 168.613,178.046 79.2799,134.546 -0.5,72.5C -0.5,64.8333 -0.5,57.1667 -0.5,49.5 Z"/></g>
<g><path style="opacity:1" fill="#121011" d="M 36.5,-0.5 C 37.5,-0.5 38.5,-0.5 39.5,-0.5C 89.1065,40.494 143.773,73.6607 203.5,99C 274.201,127.594 347.201,148.26 422.5,161C 516.604,175.725 611.27,181.392 706.5,178C 777.816,175.667 849.15,174.167 920.5,173.5C 1058.96,170.301 1194.3,189.135 1326.5,230C 1414.37,256.43 1494.04,297.763 1565.5,354C 1598.23,381.563 1629.9,410.397 1660.5,440.5C 1660.5,441.5 1660.5,442.5 1660.5,443.5C 1643.37,427.537 1626.37,411.371 1609.5,395C 1533.88,324.157 1446.55,272.157 1347.5,239C 1209.85,193.671 1068.52,172.504 923.5,175.5C 854.149,176.152 784.816,177.652 715.5,180C 678.167,180.667 640.833,180.667 603.5,180C 498.04,178.201 394.706,162.534 293.5,133C 198.019,106.268 112.352,61.7685 36.5,-0.5 Z"/></g>
<g><path style="opacity:1" fill="#111010" d="M -0.5,46.5 C 46.1664,84.8565 97.1664,116.69 152.5,142C 223.968,172.369 297.968,194.369 374.5,208C 473.818,224.606 573.818,230.939 674.5,227C 742.987,224.802 811.487,223.302 880,222.5C 1034.55,218.564 1184.71,242.064 1330.5,293C 1413.44,322.727 1487.77,366.393 1553.5,424C 1589.34,457.672 1625.01,491.506 1660.5,525.5C 1660.5,526.5 1660.5,527.5 1660.5,528.5C 1624.67,494.172 1588.67,460.006 1552.5,426C 1485.34,367.316 1409.34,322.983 1324.5,293C 1181.51,243.728 1034.34,220.895 883,224.5C 795.835,226.177 708.668,227.844 621.5,229.5C 498.479,231.966 377.812,216.466 259.5,183C 163.286,156.065 76.6191,111.565 -0.5,49.5C -0.5,48.5 -0.5,47.5 -0.5,46.5 Z"/></g>
<g><path style="opacity:1" fill="#141313" d="M -0.5,20.5 C 77.0938,86.1441 165.094,133.311 263.5,162C 384.11,197.18 507.276,213.68 633,211.5C 722.01,209.499 811.01,207.499 900,205.5C 941.534,205.891 983.034,207.391 1024.5,210C 1134.99,217.789 1242.32,240.456 1346.5,278C 1429.07,308.256 1503.07,352.256 1568.5,410C 1599.64,438.64 1630.31,467.807 1660.5,497.5C 1660.5,498.5 1660.5,499.5 1660.5,500.5C 1642.4,483.899 1624.73,466.733 1607.5,449C 1566.25,408.061 1521.25,372.061 1472.5,341C 1408.76,303.301 1341.09,274.634 1269.5,255C 1148.43,221.823 1025.09,205.99 899.5,207.5C 810.507,209.525 721.507,211.525 632.5,213.5C 508.006,215.819 386.006,199.652 266.5,165C 166.612,136.739 77.6121,89.2388 -0.5,22.5C -0.5,21.8333 -0.5,21.1667 -0.5,20.5 Z"/></g>
<g><path style="opacity:1" fill="#fefefe" d="M -0.5,75.5 C 76.3719,134.6 162.039,176.767 256.5,202C 371.041,233.148 487.708,247.981 606.5,246.5C 697.32,244.026 788.154,242.026 879,240.5C 1025.06,238.116 1167.23,260.282 1305.5,307C 1395.22,337.832 1475.22,384.498 1545.5,447C 1578.11,476.938 1610.11,507.604 1641.5,539C 1647.71,544.709 1654.04,550.209 1660.5,555.5C 1660.5,563.5 1660.5,571.5 1660.5,579.5C 1628.44,551.609 1597.44,522.442 1567.5,492C 1532.07,457.649 1494.07,426.649 1453.5,399C 1386.1,356.48 1313.77,324.48 1236.5,303C 1113.88,268.746 988.885,252.579 861.5,254.5C 786.494,256.076 711.494,257.909 636.5,260C 530.193,263.638 424.859,255.305 320.5,235C 253.696,221.287 189.029,200.953 126.5,174C 81.1976,153.368 38.8643,128.201 -0.5,98.5C -0.5,90.8333 -0.5,83.1667 -0.5,75.5 Z"/></g>
<g><path style="opacity:1" fill="#111011" d="M 4.5,-0.5 C 5.5,-0.5 6.5,-0.5 7.5,-0.5C 60.9388,46.0833 120.272,83.9166 185.5,113C 252.023,140.395 320.689,160.728 391.5,174C 496.748,192.074 602.748,198.74 709.5,194C 776.485,191.813 843.485,190.313 910.5,189.5C 1057.68,186.645 1201.01,208.478 1340.5,255C 1424.73,283.761 1500.73,326.427 1568.5,383C 1599.61,410.943 1630.28,439.443 1660.5,468.5C 1660.5,469.833 1660.5,471.167 1660.5,472.5C 1630.28,442.44 1599.28,413.273 1567.5,385C 1503.97,331.212 1432.64,290.212 1353.5,262C 1226.06,217.046 1094.73,193.713 959.5,192C 879.136,191.334 798.803,192.667 718.5,196C 672.167,196.667 625.833,196.667 579.5,196C 479.922,193.299 382.256,178.299 286.5,151C 180.221,122.047 86.2213,71.5473 4.5,-0.5 Z"/></g>
<g><path style="opacity:1" fill="#fefdfd" d="M -0.5,101.5 C 77.446,157.961 163.446,198.128 257.5,222C 355.131,247.738 454.465,261.071 555.5,262C 582.5,262.667 609.5,262.667 636.5,262C 711.662,259.915 786.829,258.081 862,256.5C 1008.3,254.023 1150.8,275.856 1289.5,322C 1379.65,352.211 1459.98,398.544 1530.5,461C 1562.44,490.271 1593.77,520.271 1624.5,551C 1636.37,561.709 1648.37,572.209 1660.5,582.5C 1660.5,590.5 1660.5,598.5 1660.5,606.5C 1647.41,596.251 1634.74,585.418 1622.5,574C 1587.47,539.968 1552.14,506.302 1516.5,473C 1446.08,411.431 1366.08,365.764 1276.5,336C 1136.8,289.635 993.301,268.135 846,271.5C 778.484,272.2 710.984,273.7 643.5,276C 548.691,279.595 454.357,274.595 360.5,261C 275.951,247.593 194.284,224.259 115.5,191C 74.7233,172.124 36.0566,149.957 -0.5,124.5C -0.5,116.833 -0.5,109.167 -0.5,101.5 Z"/></g>
<g><path style="opacity:1" fill="#131112" d="M -0.5,98.5 C 38.8643,128.201 81.1976,153.368 126.5,174C 189.029,200.953 253.696,221.287 320.5,235C 424.859,255.305 530.193,263.638 636.5,260C 711.494,257.909 786.494,256.076 861.5,254.5C 988.885,252.579 1113.88,268.746 1236.5,303C 1313.77,324.48 1386.1,356.48 1453.5,399C 1494.07,426.649 1532.07,457.649 1567.5,492C 1597.44,522.442 1628.44,551.609 1660.5,579.5C 1660.5,580.5 1660.5,581.5 1660.5,582.5C 1648.37,572.209 1636.37,561.709 1624.5,551C 1593.77,520.271 1562.44,490.271 1530.5,461C 1459.98,398.544 1379.65,352.211 1289.5,322C 1150.8,275.856 1008.3,254.023 862,256.5C 786.829,258.081 711.662,259.915 636.5,262C 609.5,262.667 582.5,262.667 555.5,262C 454.465,261.071 355.131,247.738 257.5,222C 163.446,198.128 77.446,157.961 -0.5,101.5C -0.5,100.5 -0.5,99.5 -0.5,98.5 Z"/></g>
<g><path style="opacity:1" fill="#111011" d="M -0.5,124.5 C 36.0566,149.957 74.7233,172.124 115.5,191C 194.284,224.259 275.951,247.593 360.5,261C 454.357,274.595 548.691,279.595 643.5,276C 710.984,273.7 778.484,272.2 846,271.5C 993.301,268.135 1136.8,289.635 1276.5,336C 1366.08,365.764 1446.08,411.431 1516.5,473C 1552.14,506.302 1587.47,539.968 1622.5,574C 1634.74,585.418 1647.41,596.251 1660.5,606.5C 1660.5,607.5 1660.5,608.5 1660.5,609.5C 1647.41,599.251 1634.74,588.418 1622.5,577C 1587.19,542.69 1551.52,508.69 1515.5,475C 1464.12,430.024 1407.12,393.357 1344.5,365C 1244.84,322.834 1141.18,295.501 1033.5,283C 971.202,275.9 908.702,272.733 846,273.5C 778.485,274.237 710.985,275.737 643.5,278C 548.372,281.357 453.705,276.357 359.5,263C 276.008,249.63 195.341,226.63 117.5,194C 75.7598,175.309 36.4265,152.809 -0.5,126.5C -0.5,125.833 -0.5,125.167 -0.5,124.5 Z"/></g>
<g><path style="opacity:1" fill="#fefefe" d="M -0.5,126.5 C 36.4265,152.809 75.7598,175.309 117.5,194C 195.341,226.63 276.008,249.63 359.5,263C 453.705,276.357 548.372,281.357 643.5,278C 710.985,275.737 778.485,274.237 846,273.5C 908.702,272.733 971.202,275.9 1033.5,283C 1141.18,295.501 1244.84,322.834 1344.5,365C 1407.12,393.357 1464.12,430.024 1515.5,475C 1551.52,508.69 1587.19,542.69 1622.5,577C 1634.74,588.418 1647.41,599.251 1660.5,609.5C 1660.5,617.5 1660.5,625.5 1660.5,633.5C 1646.37,621.877 1632.37,610.044 1618.5,598C 1580.1,560.269 1541.1,523.269 1501.5,487C 1435.29,429.869 1360.63,386.536 1277.5,357C 1167.43,318.386 1054.09,296.052 937.5,290C 903.354,288.308 869.187,287.475 835,287.5C 772.151,288.341 709.318,289.841 646.5,292C 599.5,292.667 552.5,292.667 505.5,292C 381.093,288.933 260.426,266.267 143.5,224C 92.4005,204.621 44.4005,179.787 -0.5,149.5C -0.5,141.833 -0.5,134.167 -0.5,126.5 Z"/></g>
<g><path style="opacity:1" fill="#121011" d="M -0.5,72.5 C 79.2799,134.546 168.613,178.046 267.5,203C 378.755,232.115 491.922,245.949 607,244.5C 695.327,242.29 783.661,240.29 872,238.5C 1018.57,235.569 1161.41,257.069 1300.5,303C 1374.78,328.299 1443.11,364.299 1505.5,411C 1552.96,450.117 1598.29,491.784 1641.5,536C 1647.71,541.709 1654.04,547.209 1660.5,552.5C 1660.5,553.5 1660.5,554.5 1660.5,555.5C 1654.04,550.209 1647.71,544.709 1641.5,539C 1610.11,507.604 1578.11,476.938 1545.5,447C 1475.22,384.498 1395.22,337.832 1305.5,307C 1167.23,260.282 1025.06,238.116 879,240.5C 788.154,242.026 697.32,244.026 606.5,246.5C 487.708,247.981 371.041,233.148 256.5,202C 162.039,176.767 76.3719,134.6 -0.5,75.5C -0.5,74.5 -0.5,73.5 -0.5,72.5 Z"/></g>
<g><path style="opacity:1" fill="#fefdfe" d="M -0.5,151.5 C 72.6623,199.745 151.996,234.579 237.5,256C 338.817,282.04 441.817,295.04 546.5,295C 642.67,293.632 738.836,291.798 835,289.5C 984.524,286.542 1130.02,309.042 1271.5,357C 1360.08,387.761 1439.08,434.094 1508.5,496C 1541.11,525.938 1573.11,556.604 1604.5,588C 1622.74,604.75 1641.41,620.916 1660.5,636.5C 1660.5,641.5 1660.5,646.5 1660.5,651.5C 1656.83,651.5 1653.17,651.5 1649.5,651.5C 1609.05,617.209 1570.05,581.042 1532.5,543C 1493.34,504.824 1451.01,470.824 1405.5,441C 1339.89,401.207 1269.89,371.207 1195.5,351C 1074.28,317.716 950.781,301.882 825,303.5C 747.822,304.909 670.656,306.742 593.5,309C 472.479,313.365 353.146,301.365 235.5,273C 167.77,256.204 103.103,231.537 41.5,199C 27.3057,190.74 13.3057,182.24 -0.5,173.5C -0.5,166.167 -0.5,158.833 -0.5,151.5 Z"/></g>
<g><path style="opacity:1" fill="#fefefe" d="M -0.5,176.5 C 62.6618,216.071 130.328,245.904 202.5,266C 307.099,295.409 413.766,310.409 522.5,311C 550.5,311.667 578.5,311.667 606.5,311C 679.322,308.71 752.155,306.877 825,305.5C 973.46,303.136 1117.96,325.636 1258.5,373C 1346.03,403.574 1424.36,449.24 1493.5,510C 1530.14,544.302 1566.47,578.968 1602.5,614C 1617.03,626.365 1631.36,638.865 1645.5,651.5C 1636.17,651.5 1626.83,651.5 1617.5,651.5C 1607.03,641.865 1596.36,632.365 1585.5,623C 1553.47,590.966 1520.8,559.632 1487.5,529C 1416.02,464.729 1334.35,417.062 1242.5,386C 1102.22,339.108 958.049,317.275 810,320.5C 737.816,321.162 665.649,322.662 593.5,325C 487.623,328.919 382.623,321.253 278.5,302C 203.365,287.137 131.031,263.804 61.5,232C 40.1789,221.474 19.5122,209.974 -0.5,197.5C -0.5,190.5 -0.5,183.5 -0.5,176.5 Z"/></g>
<g><path style="opacity:1" fill="#121111" d="M -0.5,149.5 C 44.4005,179.787 92.4005,204.621 143.5,224C 260.426,266.267 381.093,288.933 505.5,292C 552.5,292.667 599.5,292.667 646.5,292C 709.318,289.841 772.151,288.341 835,287.5C 869.187,287.475 903.354,288.308 937.5,290C 1054.09,296.052 1167.43,318.386 1277.5,357C 1360.63,386.536 1435.29,429.869 1501.5,487C 1541.1,523.269 1580.1,560.269 1618.5,598C 1632.37,610.044 1646.37,621.877 1660.5,633.5C 1660.5,634.5 1660.5,635.5 1660.5,636.5C 1641.41,620.916 1622.74,604.75 1604.5,588C 1573.11,556.604 1541.11,525.938 1508.5,496C 1439.08,434.094 1360.08,387.761 1271.5,357C 1130.02,309.042 984.524,286.542 835,289.5C 738.836,291.798 642.67,293.632 546.5,295C 441.817,295.04 338.817,282.04 237.5,256C 151.996,234.579 72.6623,199.745 -0.5,151.5C -0.5,150.833 -0.5,150.167 -0.5,149.5 Z"/></g>
<g><path style="opacity:1" fill="#121111" d="M -0.5,173.5 C 13.3057,182.24 27.3057,190.74 41.5,199C 103.103,231.537 167.77,256.204 235.5,273C 353.146,301.365 472.479,313.365 593.5,309C 670.656,306.742 747.822,304.909 825,303.5C 950.781,301.882 1074.28,317.716 1195.5,351C 1269.89,371.207 1339.89,401.207 1405.5,441C 1451.01,470.824 1493.34,504.824 1532.5,543C 1570.05,581.042 1609.05,617.209 1649.5,651.5C 1648.17,651.5 1646.83,651.5 1645.5,651.5C 1631.36,638.865 1617.03,626.365 1602.5,614C 1566.47,578.968 1530.14,544.302 1493.5,510C 1424.36,449.24 1346.03,403.574 1258.5,373C 1117.96,325.636 973.46,303.136 825,305.5C 752.155,306.877 679.322,308.71 606.5,311C 578.5,311.667 550.5,311.667 522.5,311C 413.766,310.409 307.099,295.409 202.5,266C 130.328,245.904 62.6618,216.071 -0.5,176.5C -0.5,175.5 -0.5,174.5 -0.5,173.5 Z"/></g>
<g><path style="opacity:1" fill="#fefefe" d="M -0.5,200.5 C 76.4495,245.957 158.783,278.124 246.5,297C 325.843,314.835 406.176,324.835 487.5,327C 528.833,327.667 570.167,327.667 611.5,327C 677.48,324.571 743.48,323.071 809.5,322.5C 951.184,319.337 1089.52,339.171 1224.5,382C 1316.31,411.052 1398.64,456.385 1471.5,518C 1504.41,547.237 1536.41,577.57 1567.5,609C 1583.03,623.033 1598.36,637.199 1613.5,651.5C 1604.5,651.5 1595.5,651.5 1586.5,651.5C 1546.33,612.501 1505.67,574.001 1464.5,536C 1390.18,472.184 1305.84,425.517 1211.5,396C 1077.48,353.746 940.146,333.913 799.5,336.5C 735.146,337.142 670.813,338.642 606.5,341C 502.565,345.707 399.232,340.04 296.5,324C 217.499,310.503 141.166,288.17 67.5,257C 44.3655,245.934 21.6988,234.101 -0.5,221.5C -0.5,214.5 -0.5,207.5 -0.5,200.5 Z"/></g>
<g><path style="opacity:1" fill="#fefdfe" d="M -0.5,224.5 C 69.9757,263.831 144.642,292.665 223.5,311C 303.076,329.825 383.743,340.491 465.5,343C 512.833,343.667 560.167,343.667 607.5,343C 671.318,340.817 735.151,339.317 799,338.5C 920.54,336.547 1040.04,351.047 1157.5,382C 1235.37,402.168 1308.7,432.834 1377.5,474C 1407.59,493.384 1436.26,514.717 1463.5,538C 1504,575.334 1544,613.168 1583.5,651.5C 1574.5,651.5 1565.5,651.5 1556.5,651.5C 1524,619.502 1491,588.002 1457.5,557C 1378.16,487.646 1287.5,437.979 1185.5,408C 1053.15,368.11 917.815,349.61 779.5,352.5C 704.167,354.359 628.834,356.192 553.5,358C 445.349,361.524 338.349,352.191 232.5,330C 166.536,315.79 102.869,294.79 41.5,267C 27.259,260.047 13.259,252.881 -0.5,245.5C -0.5,238.5 -0.5,231.5 -0.5,224.5 Z"/></g>
<g><path style="opacity:1" fill="#131112" d="M -0.5,197.5 C 19.5122,209.974 40.1789,221.474 61.5,232C 131.031,263.804 203.365,287.137 278.5,302C 382.623,321.253 487.623,328.919 593.5,325C 665.649,322.662 737.816,321.162 810,320.5C 958.049,317.275 1102.22,339.108 1242.5,386C 1334.35,417.062 1416.02,464.729 1487.5,529C 1520.8,559.632 1553.47,590.966 1585.5,623C 1596.36,632.365 1607.03,641.865 1617.5,651.5C 1616.17,651.5 1614.83,651.5 1613.5,651.5C 1598.36,637.199 1583.03,623.033 1567.5,609C 1536.41,577.57 1504.41,547.237 1471.5,518C 1398.64,456.385 1316.31,411.052 1224.5,382C 1089.52,339.171 951.184,319.337 809.5,322.5C 743.48,323.071 677.48,324.571 611.5,327C 570.167,327.667 528.833,327.667 487.5,327C 406.176,324.835 325.843,314.835 246.5,297C 158.783,278.124 76.4495,245.957 -0.5,200.5C -0.5,199.5 -0.5,198.5 -0.5,197.5 Z"/></g>
<g><path style="opacity:1" fill="#131212" d="M -0.5,221.5 C 21.6988,234.101 44.3655,245.934 67.5,257C 141.166,288.17 217.499,310.503 296.5,324C 399.232,340.04 502.565,345.707 606.5,341C 670.813,338.642 735.146,337.142 799.5,336.5C 940.146,333.913 1077.48,353.746 1211.5,396C 1305.84,425.517 1390.18,472.184 1464.5,536C 1505.67,574.001 1546.33,612.501 1586.5,651.5C 1585.5,651.5 1584.5,651.5 1583.5,651.5C 1544,613.168 1504,575.334 1463.5,538C 1436.26,514.717 1407.59,493.384 1377.5,474C 1308.7,432.834 1235.37,402.168 1157.5,382C 1040.04,351.047 920.54,336.547 799,338.5C 735.151,339.317 671.318,340.817 607.5,343C 560.167,343.667 512.833,343.667 465.5,343C 383.743,340.491 303.076,329.825 223.5,311C 144.642,292.665 69.9757,263.831 -0.5,224.5C -0.5,223.5 -0.5,222.5 -0.5,221.5 Z"/></g>
<g><path style="opacity:1" fill="#fefefe" d="M -0.5,247.5 C 61.1896,281.003 126.19,306.17 194.5,323C 301.835,349.683 410.835,362.183 521.5,360.5C 610.503,358.604 699.503,356.604 788.5,354.5C 924.826,352.57 1058.16,371.404 1188.5,411C 1282.84,439.158 1367.51,484.491 1442.5,547C 1480.6,580.602 1517.6,615.435 1553.5,651.5C 1544.5,651.5 1535.5,651.5 1526.5,651.5C 1484.74,607.838 1440.07,567.671 1392.5,531C 1327.86,485.514 1257.52,450.847 1181.5,427C 1048.2,385.52 911.696,366.353 772,369.5C 702.152,370.226 632.318,371.726 562.5,374C 458.043,378.324 354.376,371.324 251.5,353C 186.798,340.409 123.798,322.076 62.5,298C 41.1078,288.823 20.1078,278.99 -0.5,268.5C -0.5,261.5 -0.5,254.5 -0.5,247.5 Z"/></g>
<g><path style="opacity:1" fill="#131213" d="M -0.5,245.5 C 13.259,252.881 27.259,260.047 41.5,267C 102.869,294.79 166.536,315.79 232.5,330C 338.349,352.191 445.349,361.524 553.5,358C 628.834,356.192 704.167,354.359 779.5,352.5C 917.815,349.61 1053.15,368.11 1185.5,408C 1287.5,437.979 1378.16,487.646 1457.5,557C 1491,588.002 1524,619.502 1556.5,651.5C 1555.5,651.5 1554.5,651.5 1553.5,651.5C 1517.6,615.435 1480.6,580.602 1442.5,547C 1367.51,484.491 1282.84,439.158 1188.5,411C 1058.16,371.404 924.826,352.57 788.5,354.5C 699.503,356.604 610.503,358.604 521.5,360.5C 410.835,362.183 301.835,349.683 194.5,323C 126.19,306.17 61.1896,281.003 -0.5,247.5C -0.5,246.833 -0.5,246.167 -0.5,245.5 Z"/></g>
<g><path style="opacity:1" fill="#fefdfe" d="M -0.5,270.5 C 70.1944,306.678 144.528,332.844 222.5,349C 300.61,365.711 379.61,374.711 459.5,376C 493.833,376.667 528.167,376.667 562.5,376C 632.65,373.705 702.817,372.205 773,371.5C 913.399,368.605 1050.57,388.105 1184.5,430C 1274.55,457.843 1355.55,501.51 1427.5,561C 1460.53,590.026 1492.53,620.192 1523.5,651.5C 1514.83,651.5 1506.17,651.5 1497.5,651.5C 1457.57,610.244 1414.57,572.744 1368.5,539C 1303.82,495.332 1233.82,462.332 1158.5,440C 1029.05,401.277 896.719,383.11 761.5,385.5C 673.162,387.227 584.828,389.227 496.5,391.5C 409.461,391.886 323.128,384.386 237.5,369C 154.77,353.324 75.4367,327.49 -0.5,291.5C -0.5,284.5 -0.5,277.5 -0.5,270.5 Z"/></g>
<g><path style="opacity:1" fill="#121011" d="M -0.5,268.5 C 20.1078,278.99 41.1078,288.823 62.5,298C 123.798,322.076 186.798,340.409 251.5,353C 354.376,371.324 458.043,378.324 562.5,374C 632.318,371.726 702.152,370.226 772,369.5C 911.696,366.353 1048.2,385.52 1181.5,427C 1257.52,450.847 1327.86,485.514 1392.5,531C 1440.07,567.671 1484.74,607.838 1526.5,651.5C 1525.5,651.5 1524.5,651.5 1523.5,651.5C 1492.53,620.192 1460.53,590.026 1427.5,561C 1355.55,501.51 1274.55,457.843 1184.5,430C 1050.57,388.105 913.399,368.605 773,371.5C 702.817,372.205 632.65,373.705 562.5,376C 528.167,376.667 493.833,376.667 459.5,376C 379.61,374.711 300.61,365.711 222.5,349C 144.528,332.844 70.1944,306.678 -0.5,270.5C -0.5,269.833 -0.5,269.167 -0.5,268.5 Z"/></g>
<g><path style="opacity:1" fill="#111011" d="M -0.5,291.5 C 75.4367,327.49 154.77,353.324 237.5,369C 323.128,384.386 409.461,391.886 496.5,391.5C 584.828,389.227 673.162,387.227 761.5,385.5C 896.719,383.11 1029.05,401.277 1158.5,440C 1233.82,462.332 1303.82,495.332 1368.5,539C 1414.57,572.744 1457.57,610.244 1497.5,651.5C 1496.5,651.5 1495.5,651.5 1494.5,651.5C 1451.85,606.66 1405.18,566.826 1354.5,532C 1294.4,493.457 1230.07,463.79 1161.5,443C 1031.46,403.732 898.457,385.232 762.5,387.5C 697.152,388.364 631.819,389.864 566.5,392C 507.808,393.111 449.141,392.444 390.5,390C 279.138,383.774 171.138,361.441 66.5,323C 43.8519,313.841 21.5185,304.008 -0.5,293.5C -0.5,292.833 -0.5,292.167 -0.5,291.5 Z"/></g>
<g><path style="opacity:1" fill="#fdfdfd" d="M -0.5,293.5 C 21.5185,304.008 43.8519,313.841 66.5,323C 171.138,361.441 279.138,383.774 390.5,390C 449.141,392.444 507.808,393.111 566.5,392C 631.819,389.864 697.152,388.364 762.5,387.5C 898.457,385.232 1031.46,403.732 1161.5,443C 1230.07,463.79 1294.4,493.457 1354.5,532C 1405.18,566.826 1451.85,606.66 1494.5,651.5C 1485.83,651.5 1477.17,651.5 1468.5,651.5C 1412.7,593.861 1349.37,546.361 1278.5,509C 1204.18,473.116 1126.52,446.782 1045.5,430C 948.359,410.12 850.192,400.62 751,401.5C 662.832,403.47 574.665,405.47 486.5,407.5C 343.607,410.618 204.607,389.118 69.5,343C 45.7709,334.037 22.4376,324.204 -0.5,313.5C -0.5,306.833 -0.5,300.167 -0.5,293.5 Z"/></g>
<g><path style="opacity:1" fill="#121112" d="M -0.5,313.5 C 22.4376,324.204 45.7709,334.037 69.5,343C 204.607,389.118 343.607,410.618 486.5,407.5C 574.665,405.47 662.832,403.47 751,401.5C 850.192,400.62 948.359,410.12 1045.5,430C 1126.52,446.782 1204.18,473.116 1278.5,509C 1349.37,546.361 1412.7,593.861 1468.5,651.5C 1467.5,651.5 1466.5,651.5 1465.5,651.5C 1413.28,598.096 1354.61,553.263 1289.5,517C 1213.2,478.586 1133.2,450.586 1049.5,433C 950.908,412.608 851.241,402.774 750.5,403.5C 662.006,405.781 573.506,407.781 485,409.5C 368.867,411.438 254.701,397.605 142.5,368C 93.1314,354.935 45.4647,337.435 -0.5,315.5C -0.5,314.833 -0.5,314.167 -0.5,313.5 Z"/></g>
<g><path style="opacity:1" fill="#fdfdfd" d="M -0.5,315.5 C 45.4647,337.435 93.1314,354.935 142.5,368C 254.701,397.605 368.867,411.438 485,409.5C 573.506,407.781 662.006,405.781 750.5,403.5C 851.241,402.774 950.908,412.608 1049.5,433C 1133.2,450.586 1213.2,478.586 1289.5,517C 1354.61,553.263 1413.28,598.096 1465.5,651.5C 1456.5,651.5 1447.5,651.5 1438.5,651.5C 1360.19,573.472 1268.19,516.972 1162.5,482C 1051.49,445.132 937.491,424.466 820.5,420C 773.177,418.49 725.843,418.157 678.5,419C 611.013,421.177 543.513,422.677 476,423.5C 332.22,427.151 192.387,405.651 56.5,359C 37.1885,351.843 18.1885,344.009 -0.5,335.5C -0.5,328.833 -0.5,322.167 -0.5,315.5 Z"/></g>
<g><path style="opacity:1" fill="#110f10" d="M -0.5,335.5 C 18.1885,344.009 37.1885,351.843 56.5,359C 192.387,405.651 332.22,427.151 476,423.5C 543.513,422.677 611.013,421.177 678.5,419C 725.843,418.157 773.177,418.49 820.5,420C 937.491,424.466 1051.49,445.132 1162.5,482C 1268.19,516.972 1360.19,573.472 1438.5,651.5C 1437.5,651.5 1436.5,651.5 1435.5,651.5C 1361.09,577.084 1273.75,522.584 1173.5,488C 1058.8,448.527 940.8,426.527 819.5,422C 772.51,420.484 725.51,420.151 678.5,421C 610.682,423.245 542.849,424.745 475,425.5C 334.491,428.997 197.658,408.497 64.5,364C 42.3632,356.263 20.6965,347.43 -0.5,337.5C -0.5,336.833 -0.5,336.167 -0.5,335.5 Z"/></g>
<g><path style="opacity:1" fill="#fefefe" d="M -0.5,337.5 C 20.6965,347.43 42.3632,356.263 64.5,364C 197.658,408.497 334.491,428.997 475,425.5C 542.849,424.745 610.682,423.245 678.5,421C 725.51,420.151 772.51,420.484 819.5,422C 940.8,426.527 1058.8,448.527 1173.5,488C 1273.75,522.584 1361.09,577.084 1435.5,651.5C 1426.83,651.5 1418.17,651.5 1409.5,651.5C 1333.75,580.594 1246.09,529.094 1146.5,497C 1009.54,452.815 869.035,431.982 725,434.5C 663.81,435.05 602.644,436.55 541.5,439C 490.833,439.667 440.167,439.667 389.5,439C 273.782,435.28 161.115,414.947 51.5,378C 34.0191,371.453 16.6858,364.619 -0.5,357.5C -0.5,350.833 -0.5,344.167 -0.5,337.5 Z"/></g>
<g><path style="opacity:1" fill="#131212" d="M -0.5,357.5 C 16.6858,364.619 34.0191,371.453 51.5,378C 161.115,414.947 273.782,435.28 389.5,439C 440.167,439.667 490.833,439.667 541.5,439C 602.644,436.55 663.81,435.05 725,434.5C 869.035,431.982 1009.54,452.815 1146.5,497C 1246.09,529.094 1333.75,580.594 1409.5,651.5C 1408.17,651.5 1406.83,651.5 1405.5,651.5C 1341.43,590.759 1267.77,544.592 1184.5,513C 1060.33,466.966 931.994,441.966 799.5,438C 761.509,436.617 723.509,436.283 685.5,437C 610.005,439.038 534.505,440.872 459,442.5C 331.488,444.379 206.655,427.212 84.5,391C 55.5596,381.966 27.2263,371.466 -0.5,359.5C -0.5,358.833 -0.5,358.167 -0.5,357.5 Z"/></g>
<g><path style="opacity:1" fill="#fefefe" d="M -0.5,359.5 C 27.2263,371.466 55.5596,381.966 84.5,391C 206.655,427.212 331.488,444.379 459,442.5C 534.505,440.872 610.005,439.038 685.5,437C 723.509,436.283 761.509,436.617 799.5,438C 931.994,441.966 1060.33,466.966 1184.5,513C 1267.77,544.592 1341.43,590.759 1405.5,651.5C 1396.5,651.5 1387.5,651.5 1378.5,651.5C 1315.98,596.377 1245.31,554.21 1166.5,525C 1040.88,479.344 911.218,455.011 777.5,452C 729.833,451.333 682.167,451.333 634.5,452C 547.192,455.8 459.859,456.8 372.5,455C 243.806,450.895 119.473,425.728 -0.5,379.5C -0.5,372.833 -0.5,366.167 -0.5,359.5 Z"/></g>
<g><path style="opacity:1" fill="#121111" d="M -0.5,379.5 C 119.473,425.728 243.806,450.895 372.5,455C 459.859,456.8 547.192,455.8 634.5,452C 682.167,451.333 729.833,451.333 777.5,452C 911.218,455.011 1040.88,479.344 1166.5,525C 1245.31,554.21 1315.98,596.377 1378.5,651.5C 1377.5,651.5 1376.5,651.5 1375.5,651.5C 1315.1,598.766 1247.1,557.933 1171.5,529C 1044.11,481.933 912.446,456.933 776.5,454C 731.833,453.333 687.167,453.333 642.5,454C 578.014,456.114 513.514,457.614 449,458.5C 320.409,461.114 194.575,443.948 71.5,407C 47.147,399.383 23.147,390.883 -0.5,381.5C -0.5,380.833 -0.5,380.167 -0.5,379.5 Z"/></g>
<g><path style="opacity:1" fill="#fefefe" d="M -0.5,381.5 C 23.147,390.883 47.147,399.383 71.5,407C 194.575,443.948 320.409,461.114 449,458.5C 513.514,457.614 578.014,456.114 642.5,454C 687.167,453.333 731.833,453.333 776.5,454C 912.446,456.933 1044.11,481.933 1171.5,529C 1247.1,557.933 1315.1,598.766 1375.5,651.5C 1365.83,651.5 1356.17,651.5 1346.5,651.5C 1294.36,608.641 1236.69,574.474 1173.5,549C 1040.38,497.51 902.383,470.51 759.5,468C 718.833,467.333 678.167,467.333 637.5,468C 570.854,470.458 504.188,471.958 437.5,472.5C 314.141,475.091 193.141,459.591 74.5,426C 49.0947,418.569 24.0947,410.069 -0.5,400.5C -0.5,394.167 -0.5,387.833 -0.5,381.5 Z"/></g>
<g><path style="opacity:1" fill="#111011" d="M -0.5,400.5 C 24.0947,410.069 49.0947,418.569 74.5,426C 193.141,459.591 314.141,475.091 437.5,472.5C 504.188,471.958 570.854,470.458 637.5,468C 678.167,467.333 718.833,467.333 759.5,468C 902.383,470.51 1040.38,497.51 1173.5,549C 1236.69,574.474 1294.36,608.641 1346.5,651.5C 1345.5,651.5 1344.5,651.5 1343.5,651.5C 1280.63,600.882 1210.63,562.382 1133.5,536C 1020.72,497.314 904.719,475.647 785.5,471C 739.508,469.551 693.508,469.218 647.5,470C 577.848,472.229 508.181,473.729 438.5,474.5C 311.207,477.45 186.54,460.95 64.5,425C 42.4898,418.386 20.8231,410.886 -0.5,402.5C -0.5,401.833 -0.5,401.167 -0.5,400.5 Z"/></g>
<g><path style="opacity:1" fill="#fefefe" d="M -0.5,402.5 C 20.8231,410.886 42.4898,418.386 64.5,425C 186.54,460.95 311.207,477.45 438.5,474.5C 508.181,473.729 577.848,472.229 647.5,470C 693.508,469.218 739.508,469.551 785.5,471C 904.719,475.647 1020.72,497.314 1133.5,536C 1210.63,562.382 1280.63,600.882 1343.5,651.5C 1333.5,651.5 1323.5,651.5 1313.5,651.5C 1263.5,614.117 1209.17,583.95 1150.5,561C 1015.76,510.786 876.427,485.12 732.5,484C 702.833,483.333 673.167,483.333 643.5,484C 569.503,486.061 495.503,487.895 421.5,489.5C 302.695,491.066 186.028,476.233 71.5,445C 47.1756,438.058 23.1756,430.225 -0.5,421.5C -0.5,415.167 -0.5,408.833 -0.5,402.5 Z"/></g>
<g><path style="opacity:1" fill="#131212" d="M -0.5,421.5 C 23.1756,430.225 47.1756,438.058 71.5,445C 186.028,476.233 302.695,491.066 421.5,489.5C 495.503,487.895 569.503,486.061 643.5,484C 673.167,483.333 702.833,483.333 732.5,484C 876.427,485.12 1015.76,510.786 1150.5,561C 1209.17,583.95 1263.5,614.117 1313.5,651.5C 1312.17,651.5 1310.83,651.5 1309.5,651.5C 1261.56,615.177 1209.22,586.011 1152.5,564C 1025.88,516.275 894.876,490.609 759.5,487C 735.838,486.255 712.172,485.755 688.5,485.5C 599.661,487.36 510.828,489.36 422,491.5C 326.504,492.364 232.004,483.197 138.5,464C 91.2805,453.446 44.9472,439.946 -0.5,423.5C -0.5,422.833 -0.5,422.167 -0.5,421.5 Z"/></g>
<g><path style="opacity:1" fill="#fefefe" d="M -0.5,423.5 C 44.9472,439.946 91.2805,453.446 138.5,464C 232.004,483.197 326.504,492.364 422,491.5C 510.828,489.36 599.661,487.36 688.5,485.5C 712.172,485.755 735.838,486.255 759.5,487C 894.876,490.609 1025.88,516.275 1152.5,564C 1209.22,586.011 1261.56,615.177 1309.5,651.5C 1299.17,651.5 1288.83,651.5 1278.5,651.5C 1229.82,618.1 1177.49,591.267 1121.5,571C 998.954,527.492 872.621,504.158 742.5,501C 718.001,500.457 693.501,499.957 669,499.5C 583.173,501.815 497.34,503.815 411.5,505.5C 270.434,508.321 133.101,487.321 -0.5,442.5C -0.5,436.167 -0.5,429.833 -0.5,423.5 Z"/></g>
<g><path style="opacity:1" fill="#131212" d="M -0.5,442.5 C 133.101,487.321 270.434,508.321 411.5,505.5C 497.34,503.815 583.173,501.815 669,499.5C 693.501,499.957 718.001,500.457 742.5,501C 872.621,504.158 998.954,527.492 1121.5,571C 1177.49,591.267 1229.82,618.1 1278.5,651.5C 1277.17,651.5 1275.83,651.5 1274.5,651.5C 1225.24,617.866 1172.24,591.033 1115.5,571C 993.164,528.277 867.164,505.61 737.5,503C 690.167,502.333 642.833,502.333 595.5,503C 508.194,506.961 420.861,507.961 333.5,506C 219.058,501.877 107.724,481.377 -0.5,444.5C -0.5,443.833 -0.5,443.167 -0.5,442.5 Z"/></g>
<g><path style="opacity:1" fill="#fefdfe" d="M -0.5,444.5 C 107.724,481.377 219.058,501.877 333.5,506C 420.861,507.961 508.194,506.961 595.5,503C 642.833,502.333 690.167,502.333 737.5,503C 867.164,505.61 993.164,528.277 1115.5,571C 1172.24,591.033 1225.24,617.866 1274.5,651.5C 1263.17,651.5 1251.83,651.5 1240.5,651.5C 1192.78,621.848 1142.12,598.015 1088.5,580C 968.435,540.132 845.102,519.132 718.5,517C 680.833,516.333 643.167,516.333 605.5,517C 537.514,519.208 469.514,520.708 401.5,521.5C 264.165,524.688 130.165,505.354 -0.5,463.5C -0.5,457.167 -0.5,450.833 -0.5,444.5 Z"/></g>
<g><path style="opacity:1" fill="#100f0f" d="M -0.5,463.5 C 130.165,505.354 264.165,524.688 401.5,521.5C 469.514,520.708 537.514,519.208 605.5,517C 643.167,516.333 680.833,516.333 718.5,517C 845.102,519.132 968.435,540.132 1088.5,580C 1142.12,598.015 1192.78,621.848 1240.5,651.5C 1239.5,651.5 1238.5,651.5 1237.5,651.5C 1175.75,614.636 1110.08,586.469 1040.5,567C 937.247,537.57 831.914,521.57 724.5,519C 682.167,518.333 639.833,518.333 597.5,519C 503.863,523.362 410.197,524.362 316.5,522C 208.183,517.769 102.516,498.936 -0.5,465.5C -0.5,464.833 -0.5,464.167 -0.5,463.5 Z"/></g>
<g><path style="opacity:1" fill="#fefefe" d="M -0.5,465.5 C 102.516,498.936 208.183,517.769 316.5,522C 410.197,524.362 503.863,523.362 597.5,519C 639.833,518.333 682.167,518.333 724.5,519C 831.914,521.57 937.247,537.57 1040.5,567C 1110.08,586.469 1175.75,614.636 1237.5,651.5C 1225.17,651.5 1212.83,651.5 1200.5,651.5C 1151.98,624.584 1100.98,603.084 1047.5,587C 930.802,551.828 811.469,533.828 689.5,533C 664.167,532.333 638.833,532.333 613.5,533C 539.18,535.263 464.847,536.763 390.5,537.5C 257.124,540.97 126.79,522.97 -0.5,483.5C -0.5,477.5 -0.5,471.5 -0.5,465.5 Z"/></g>
<g><path style="opacity:1" fill="#141313" d="M -0.5,483.5 C 126.79,522.97 257.124,540.97 390.5,537.5C 464.847,536.763 539.18,535.263 613.5,533C 638.833,532.333 664.167,532.333 689.5,533C 811.469,533.828 930.802,551.828 1047.5,587C 1100.98,603.084 1151.98,624.584 1200.5,651.5C 1199.17,651.5 1197.83,651.5 1196.5,651.5C 1147.01,624.271 1095.01,602.771 1040.5,587C 928.913,554.069 814.913,536.736 698.5,535C 666.5,534.333 634.5,534.333 602.5,535C 530.005,537.068 457.505,538.901 385,540.5C 253.485,542.686 124.985,524.353 -0.5,485.5C -0.5,484.833 -0.5,484.167 -0.5,483.5 Z"/></g>
<g><path style="opacity:1" fill="#fdfdfd" d="M -0.5,485.5 C 124.985,524.353 253.485,542.686 385,540.5C 457.505,538.901 530.005,537.068 602.5,535C 634.5,534.333 666.5,534.333 698.5,535C 814.913,536.736 928.913,554.069 1040.5,587C 1095.01,602.771 1147.01,624.271 1196.5,651.5C 1183.17,651.5 1169.83,651.5 1156.5,651.5C 1109.65,628.601 1060.99,610.101 1010.5,596C 909.438,567.825 806.438,552.492 701.5,550C 657.5,549.333 613.5,549.333 569.5,550C 504.348,552.156 439.182,553.656 374,554.5C 246.437,556.967 121.604,539.967 -0.5,503.5C -0.5,497.5 -0.5,491.5 -0.5,485.5 Z"/></g>
<g><path style="opacity:1" fill="#111010" d="M -0.5,503.5 C 121.604,539.967 246.437,556.967 374,554.5C 439.182,553.656 504.348,552.156 569.5,550C 613.5,549.333 657.5,549.333 701.5,550C 806.438,552.492 909.438,567.825 1010.5,596C 1060.99,610.101 1109.65,628.601 1156.5,651.5C 1155.17,651.5 1153.83,651.5 1152.5,651.5C 1107.83,629.992 1061.49,612.492 1013.5,599C 891.353,565.075 766.853,548.908 640,550.5C 551.668,552.651 463.335,554.651 375,556.5C 272.205,558.226 170.705,547.726 70.5,525C 46.5947,519.274 22.9281,512.774 -0.5,505.5C -0.5,504.833 -0.5,504.167 -0.5,503.5 Z"/></g>
<g><path style="opacity:1" fill="#fefdfe" d="M -0.5,505.5 C 22.9281,512.774 46.5947,519.274 70.5,525C 170.705,547.726 272.205,558.226 375,556.5C 463.335,554.651 551.668,552.651 640,550.5C 766.853,548.908 891.353,565.075 1013.5,599C 1061.49,612.492 1107.83,629.992 1152.5,651.5C 1137.83,651.5 1123.17,651.5 1108.5,651.5C 1065.08,633.082 1020.41,617.915 974.5,606C 876.785,580.708 777.452,567.374 676.5,566C 642.5,565.333 608.5,565.333 574.5,566C 504.349,568.26 434.182,569.76 364,570.5C 240.066,573.159 118.566,557.492 -0.5,523.5C -0.5,517.5 -0.5,511.5 -0.5,505.5 Z"/></g>
<g><path style="opacity:1" fill="#100e0f" d="M -0.5,523.5 C 118.566,557.492 240.066,573.159 364,570.5C 434.182,569.76 504.349,568.26 574.5,566C 608.5,565.333 642.5,565.333 676.5,566C 777.452,567.374 876.785,580.708 974.5,606C 1020.41,617.915 1065.08,633.082 1108.5,651.5C 1106.83,651.5 1105.17,651.5 1103.5,651.5C 1034.49,623.241 963.153,602.407 889.5,589C 785.258,571.006 680.258,564.006 574.5,568C 504.68,570.179 434.847,571.679 365,572.5C 240.672,575.48 118.838,559.813 -0.5,525.5C -0.5,524.833 -0.5,524.167 -0.5,523.5 Z"/></g>
<g><path style="opacity:1" fill="#fefdfd" d="M -0.5,525.5 C 118.838,559.813 240.672,575.48 365,572.5C 434.847,571.679 504.68,570.179 574.5,568C 680.258,564.006 785.258,571.006 889.5,589C 963.153,602.407 1034.49,623.241 1103.5,651.5C 1087.17,651.5 1070.83,651.5 1054.5,651.5C 967.769,620.32 878.436,599.82 786.5,590C 729.483,584.221 672.316,581.388 615,581.5C 525.998,583.393 436.998,585.393 348,587.5C 247.99,588.516 149.156,578.349 51.5,557C 34.0625,552.808 16.7291,548.308 -0.5,543.5C -0.5,537.5 -0.5,531.5 -0.5,525.5 Z"/></g>
<g><path style="opacity:1" fill="#141213" d="M -0.5,543.5 C 16.7291,548.308 34.0625,552.808 51.5,557C 149.156,578.349 247.99,588.516 348,587.5C 436.998,585.393 525.998,583.393 615,581.5C 672.316,581.388 729.483,584.221 786.5,590C 878.436,599.82 967.769,620.32 1054.5,651.5C 1052.5,651.5 1050.5,651.5 1048.5,651.5C 956.943,619.01 862.609,598.51 765.5,590C 715.427,585.768 665.26,583.601 615,583.5C 525.827,585.257 436.66,587.257 347.5,589.5C 229.374,591.156 113.374,576.489 -0.5,545.5C -0.5,544.833 -0.5,544.167 -0.5,543.5 Z"/></g>
<g><path style="opacity:1" fill="#fefdfe" d="M -0.5,545.5 C 113.374,576.489 229.374,591.156 347.5,589.5C 436.66,587.257 525.827,585.257 615,583.5C 665.26,583.601 715.427,585.768 765.5,590C 862.609,598.51 956.943,619.01 1048.5,651.5C 1030.17,651.5 1011.83,651.5 993.5,651.5C 887.385,619.204 778.718,601.704 667.5,599C 643.5,598.833 619.5,598.667 595.5,598.5C 509.499,600 423.499,601.667 337.5,603.5C 222.95,605.573 110.284,592.24 -0.5,563.5C -0.5,557.5 -0.5,551.5 -0.5,545.5 Z"/></g>
<g><path style="opacity:1" fill="#121011" d="M -0.5,563.5 C 110.284,592.24 222.95,605.573 337.5,603.5C 423.499,601.667 509.499,600 595.5,598.5C 619.5,598.667 643.5,598.833 667.5,599C 778.718,601.704 887.385,619.204 993.5,651.5C 991.167,651.5 988.833,651.5 986.5,651.5C 891.382,622.884 794.049,606.384 694.5,602C 663.009,601.012 631.509,600.512 600,600.5C 512.163,601.913 424.33,603.58 336.5,605.5C 222.304,607.35 109.971,594.017 -0.5,565.5C -0.5,564.833 -0.5,564.167 -0.5,563.5 Z"/></g>
<g><path style="opacity:1" fill="#fefdfe" d="M -0.5,565.5 C 109.971,594.017 222.304,607.35 336.5,605.5C 424.33,603.58 512.163,601.913 600,600.5C 631.509,600.512 663.009,601.012 694.5,602C 794.049,606.384 891.382,622.884 986.5,651.5C 964.833,651.5 943.167,651.5 921.5,651.5C 839.237,630.892 755.57,619.059 670.5,616C 624.845,614.461 579.178,614.128 533.5,615C 444.863,618.508 356.197,619.841 267.5,619C 176.687,617.226 87.3539,605.059 -0.5,582.5C -0.5,576.833 -0.5,571.167 -0.5,565.5 Z"/></g>
<g><path style="opacity:1" fill="#100f0f" d="M -0.5,582.5 C 87.3539,605.059 176.687,617.226 267.5,619C 356.197,619.841 444.863,618.508 533.5,615C 579.178,614.128 624.845,614.461 670.5,616C 755.57,619.059 839.237,630.892 921.5,651.5C 918.833,651.5 916.167,651.5 913.5,651.5C 834.759,632.436 754.759,621.27 673.5,618C 627.174,616.593 580.841,616.26 534.5,617C 465.355,619.489 396.188,620.989 327,621.5C 216.226,623.688 107.06,611.688 -0.5,585.5C -0.5,584.5 -0.5,583.5 -0.5,582.5 Z"/></g>
<g><path style="opacity:1" fill="#fefdfd" d="M -0.5,585.5 C 107.06,611.688 216.226,623.688 327,621.5C 396.188,620.989 465.355,619.489 534.5,617C 580.841,616.26 627.174,616.593 673.5,618C 754.759,621.27 834.759,632.436 913.5,651.5C 886.5,651.5 859.5,651.5 832.5,651.5C 763.531,639.111 693.865,632.278 623.5,631C 592.833,630.333 562.167,630.333 531.5,631C 458.178,633.281 384.844,635.114 311.5,636.5C 206.105,637.53 102.105,626.197 -0.5,602.5C -0.5,596.833 -0.5,591.167 -0.5,585.5 Z"/></g>
<g><path style="opacity:1" fill="#131212" d="M -0.5,602.5 C 102.105,626.197 206.105,637.53 311.5,636.5C 384.844,635.114 458.178,633.281 531.5,631C 562.167,630.333 592.833,630.333 623.5,631C 693.865,632.278 763.531,639.111 832.5,651.5C 828.833,651.5 825.167,651.5 821.5,651.5C 766.03,642.046 710.03,636.213 653.5,634C 625.833,633.494 598.167,632.994 570.5,632.5C 484.172,634.715 397.839,636.715 311.5,638.5C 206.091,639.717 102.091,628.384 -0.5,604.5C -0.5,603.833 -0.5,603.167 -0.5,602.5 Z"/></g>
<g><path style="opacity:1" fill="#fdfdfd" d="M -0.5,604.5 C 102.091,628.384 206.091,639.717 311.5,638.5C 397.839,636.715 484.172,634.715 570.5,632.5C 598.167,632.994 625.833,633.494 653.5,634C 710.03,636.213 766.03,642.046 821.5,651.5C 776.833,651.5 732.167,651.5 687.5,651.5C 646.057,648.149 604.39,646.816 562.5,647.5C 504.978,647.632 447.645,648.965 390.5,651.5C 334.833,651.5 279.167,651.5 223.5,651.5C 148.037,648.34 73.3706,638.34 -0.5,621.5C -0.5,615.833 -0.5,610.167 -0.5,604.5 Z"/></g>
<g><path style="opacity:1" fill="#100f10" d="M -0.5,621.5 C 73.3706,638.34 148.037,648.34 223.5,651.5C 211.5,651.5 199.5,651.5 187.5,651.5C 124.211,647.176 61.5438,637.843 -0.5,623.5C -0.5,622.833 -0.5,622.167 -0.5,621.5 Z"/></g>
<g><path style="opacity:1" fill="#fefefe" d="M -0.5,623.5 C 61.5438,637.843 124.211,647.176 187.5,651.5C 142.167,651.5 96.8333,651.5 51.5,651.5C 34.2228,648.11 16.8895,644.443 -0.5,640.5C -0.5,634.833 -0.5,629.167 -0.5,623.5 Z"/></g>
<g><path style="opacity:1" fill="#111011" d="M -0.5,640.5 C 16.8895,644.443 34.2228,648.11 51.5,651.5C 47.8333,651.5 44.1667,651.5 40.5,651.5C 26.8958,648.644 13.2291,645.644 -0.5,642.5C -0.5,641.833 -0.5,641.167 -0.5,640.5 Z"/></g>
<g><path style="opacity:1" fill="#fdfdfd" d="M -0.5,642.5 C 13.2291,645.644 26.8958,648.644 40.5,651.5C 26.8333,651.5 13.1667,651.5 -0.5,651.5C -0.5,648.5 -0.5,645.5 -0.5,642.5 Z"/></g>
<g><path style="opacity:1" fill="#0d0b0c" d="M 687.5,651.5 C 676.833,651.5 666.167,651.5 655.5,651.5C 624.183,649.946 592.683,649.279 561,649.5C 525.654,649.331 490.488,649.998 455.5,651.5C 433.833,651.5 412.167,651.5 390.5,651.5C 447.645,648.965 504.978,647.632 562.5,647.5C 604.39,646.816 646.057,648.149 687.5,651.5 Z"/></g>
<g><path style="opacity:1" fill="#fcfbfc" d="M 655.5,651.5 C 588.833,651.5 522.167,651.5 455.5,651.5C 490.488,649.998 525.654,649.331 561,649.5C 592.683,649.279 624.183,649.946 655.5,651.5 Z"/></g>
</svg>
